PathFileType	4	(X/Y/Z)	7_coords_data.trc
DataRate	CameraRate	NumFrames	NumMarkers	Units	OrigDataRate	OrigDataStartFrame	OrigNumFrames
30.0	30.0	6	21	m	30.0	21	50
Frame#	Time	THUMB_TIP	THUMB_IP	THUMB_MCP	THUMB_CMC	INDEX_TIP	INDEX_DIP	INDEX_PIP	INDEX_MCP	MIDDLE_TIP	MIDDLE_DIP	MIDDLE_PIP	MIDDLE_MCP	RING_TIP	RING_DIP	RING_PIP	RING_MCP	PINKY_TIP	PINKY_DIP	PINKY_PIP	PINKY_MCP	WRIST
X1	Y1	Z1	X2	Y2	Z2	X3	Y3	Z3	X4	Y4	Z4	X5	Y5	Z5	X6	Y6	Z6	X7	Y7	Z7	X8	Y8	Z8	X9	Y9	Z9	X10	Y10	Z10	X11	Y11	Z11	X12	Y12	Z12	X13	Y13	Z13	X14	Y14	Z14	X15	Y15	Z15	X16	Y16	Z16	X17	Y17	Z17	X18	Y18	Z18	X19	Y19	Z19	X20	Y20	Z20	X21	Y21	Z21
19	0.6666666666666637	0.533099417083458	-0.02919686093446705	-0.12722536268113654	0.5110964353765414	-0.02847312402401103	-0.13380905472204652	0.48298283346524673	-0.023249739435935557	-0.12151427367404483	0.47201360026769235	-0.027762121600721223	-0.07851189780646517	0.5576704963486806	0.07848460947753177	-0.1421068571500918	0.5447839195006414	0.06687972846809387	-0.1368854709456088	0.527545179898945	0.05045086541090216	-0.12882767046452537	0.5019484474016013	0.020410768691606296	-0.11282654648666723	0.513484045493498	-0.020515574583747864	-0.12345478266870541	0.5310010662276008	-0.019329066090196023	-0.12789845032006522	0.5465071187038819	0.004383396045615329	-0.12106536711696153	0.5169019265125495	0.021913067449198964	-0.09256289114036162	0.5284599850840712	-0.0265944113032901	-0.11058143679137028	0.5450827305608658	-0.019617812531918077	-0.1104746547844819	0.5582506162881292	-0.0005934587999345542	-0.10126266642397594	0.529563774917325	0.013015318988237268	-0.0762309438847962	0.5983030830441521	0.0228052450881413	-0.059006256880002994	0.5833912629587705	0.014813336020945145	-0.061607604838826796	0.5648911953442659	0.00547375976446407	-0.06497388358666337	0.5326960775166462	-0.009954428476746657	-0.07010504784630722	0.462283081001861	-0.023011742144276925	-0.05198982011943101
20	0.6999999999999968	0.5331442162575436	-0.0294384927466671	-0.12708707983066614	0.5111635065751924	-0.028713825349143796	-0.13374465138665853	0.4830443227484561	-0.02342089109072598	-0.12149245371218886	0.47201763751076287	-0.027844431424054017	-0.07849554099059614	0.5578442741540108	0.07824798602709193	-0.14208374069200597	0.5449542977362443	0.06662196412769406	-0.136918072996137	0.5277004086484943	0.05018579062261508	-0.12890774560841073	0.5020426884557714	0.02018919483375492	-0.11292269854586906	0.5134658850355089	-0.020850494041440015	-0.12330898726025918	0.5309669943075626	-0.019645777172753176	-0.12781007951813797	0.5465402584699381	0.004063220829085168	-0.12111930922782732	0.5169887526292588	0.021731351058677073	-0.09264662762355116	0.5284862799285399	-0.026901824354981674	-0.11053620211077006	0.545076464933093	-0.019848428340861868	-0.11041224170295458	0.5582872021735281	-0.0008182502140440251	-0.10127393108086669	0.5296109468561757	0.012890712816517547	-0.07628478248391135	0.5982940648162604	0.022815308952504276	-0.05904156881981143	0.5833824675651625	0.014815802012265622	-0.06162074623405153	0.564891742781269	0.0054519188898449755	-0.06497079232865205	0.5327196679719423	-0.01003453562838319	-0.07007086879062271	0.4622830810018609	-0.023011742144276925	-0.051989820119430985
21	0.7333333333333302	0.5331811375534428	-0.029662048716895484	-0.12686203519724784	0.5112416855525664	-0.028962609617284363	-0.1336569767604385	0.4831023822309496	-0.023613496621184837	-0.12147557295262545	0.47201809165865927	-0.027919629168944082	-0.07848155331046863	0.5580762206943106	0.07791543434480885	-0.1421400785006738	0.5451655997804457	0.06629843186046225	-0.1370057702807521	0.5278766691304796	0.04988824080537424	-0.12901775804264334	0.5021267577686431	0.019979771434664895	-0.11301583257228467	0.5134711851298683	-0.021154407121704244	-0.12315110935345794	0.5309486261929875	-0.019940012574113597	-0.12774069536615856	0.5465790417464439	0.0037630559279880904	-0.12116314238568421	0.5170595633985481	0.02156110004179057	-0.09273818953099588	0.5284663594449459	-0.027122089307819564	-0.11038888446871148	0.5450565707134263	-0.02006781779314104	-0.11034258690519408	0.558313865685756	-0.0010361643288622213	-0.10127504724814007	0.5296495215586445	0.012784855162807918	-0.0763340041670375	0.5983182444420889	0.02277985804063798	-0.05911568903606057	0.5833959242884889	0.014789259908041918	-0.06166023275091648	0.564909967316797	0.005405469386990935	-0.06498075820598997	0.5327423811019499	-0.01010584620651478	-0.07003337501998333	0.462283081001861	-0.023011742144276925	-0.05198982011943096
22	0.7666666666666633	0.533294299548448	-0.029700992928521575	-0.126698403212164	0.5113644280385925	-0.029053726590139828	-0.13352934618136117	0.48317439197214584	-0.023728786501876487	-0.12145512241215575	0.4720182938457944	-0.02796605845569733	-0.07847283535126776	0.5582949076439812	0.07760062225301312	-0.14224645465648797	0.545346576950456	0.06602887946115488	-0.13710490809828277	0.5280048411178058	0.049680371968989556	-0.1291048872177351	0.5021553944464237	0.019875247865665968	-0.11307064953804319	0.5135084629741665	-0.021314583974966106	-0.1229382164144254	0.5309499793857579	-0.020114987040430687	-0.1276662680701119	0.5466004536343425	0.0035963619229640864	-0.12116671915264796	0.5170866551446375	0.021480423295037965	-0.09278989817937866	0.5284290912233164	-0.027208420164171576	-0.11018871259604837	0.5450306898931663	-0.020181447365054672	-0.11028131327483737	0.5583106304162877	-0.0011422932685299925	-0.10126278956021853	0.5296555606717436	0.012758783779266092	-0.07635560447545733	0.598318012512046	0.022847830087275423	-0.05917646071629554	0.5833899722396394	0.014857237330359041	-0.06168724565701103	0.564911919205699	0.005447701422262807	-0.06497878163116261	0.5327541220546994	-0.010099571495358006	-0.0699829637042062	0.4622830810018608	-0.023011742144276925	-0.05198982011943096
23	0.7999999999999965	0.533408573659068	-0.02972002499129578	-0.12644792576892094	0.511511760605818	-0.029125109657553105	-0.13338879414807212	0.4832658111911031	-0.02384324028185525	-0.12142684624819255	0.47201281314220933	-0.028022798700011897	-0.07846417260768446	0.5585437468555137	0.07719229285862894	-0.14246107167362249	0.5455421734204319	0.06570080229752429	-0.13727409443285704	0.5281269746220535	0.04945761495029066	-0.12921931022621128	0.5021717921878606	0.019773693952314653	-0.11313113341857758	0.5135471372187063	-0.021426432475032287	-0.12275188624637248	0.5309627396447945	-0.020303333994103334	-0.1275929028687943	0.5466102893960092	0.003431651535089175	-0.12117307431093685	0.5170986288363422	0.021408162371923112	-0.09285250104441911	0.5284244250797359	-0.027414366178589278	-0.11009855465630705	0.5449844351119364	-0.020290622237647438	-0.11023397990252004	0.5582972596599673	-0.0012469653457339858	-0.1012736331605448	0.5296584285693173	0.012729820938248482	-0.0763901520348442	0.5983352426676694	0.02287729405118122	-0.05933038725858608	0.5833912988467114	0.014899831151588883	-0.06178774941375936	0.5649154341545939	0.0054706913478224095	-0.0650351738454581	0.5327624215460288	-0.010111984209180913	-0.06995934419980529	0.462283081001861	-0.023011742144276925	-0.05198982011943096
24	0.8333333333333297	0.5334169076687284	-0.029730162449500996	-0.1262433842886564	0.5115531208592068	-0.02917703299289065	-0.1332909990732497	0.4832641120730208	-0.023931000018651893	-0.1214153466731375	0.4719978011681284	-0.028099386109001423	-0.07845507670196425	0.5588993974131224	0.07665112102278937	-0.14270966483270803	0.5458206777155774	0.06527420601018818	-0.13746439116309878	0.5283044741614602	0.04917554425161186	-0.12933878130083704	0.5022013479279875	0.019650326199512458	-0.113198013233134	0.5135683029233632	-0.021622744011270068	-0.1225544551836523	0.5309511224792259	-0.020546507869503072	-0.12752228167573798	0.5466341953324028	0.0031827836827540423	-0.12116842471244929	0.5171381810016401	0.02129738948737836	-0.09291963507213874	0.5283660384791876	-0.02757992939701548	-0.10993926555565461	0.5449426031170168	-0.020496936976339475	-0.11015999882574426	0.5582936997228953	-0.0014405617902621959	-0.10128403334654357	0.5296890441258677	0.012648491780587467	-0.07642456670598244	0.5984167345785814	0.02274552301815813	-0.05950897534964267	0.583450741279929	0.014793744054210523	-0.061914854792427115	0.5649559961421888	0.0053829916546073164	-0.06510768434681952	0.5327829739171162	-0.010189039865466265	-0.06993385531797403	0.462283081001861	-0.023011742144276925	-0.05198982011943096
